<mxfile host="app.diagrams.net" agent="Mozilla/5.0 (Windows NT 10.0; Win64; x64) AppleWebKit/537.36 (KHTML, like Gecko) Chrome/133.0.0.0 Safari/537.36" version="26.0.11">
  <diagram name="Page-1" id="LWBwI8ScnncNo1WxZ8MY">
    <mxGraphModel dx="957" dy="422" grid="1" gridSize="10" guides="1" tooltips="1" connect="1" arrows="1" fold="1" page="1" pageScale="1" pageWidth="850" pageHeight="1100" math="0" shadow="0">
      <root>
        <mxCell id="0" />
        <mxCell id="1" parent="0" />
        <mxCell id="nWeCvu2n60bJMO3mKfKt-1" value="User" style="swimlane;whiteSpace=wrap;html=1;" parent="1" vertex="1">
          <mxGeometry x="130" y="520" width="390" height="710" as="geometry">
            <mxRectangle x="140" y="520" width="140" height="30" as="alternateBounds" />
          </mxGeometry>
        </mxCell>
        <mxCell id="nWeCvu2n60bJMO3mKfKt-4" value="Start" style="ellipse;whiteSpace=wrap;html=1;" parent="nWeCvu2n60bJMO3mKfKt-1" vertex="1">
          <mxGeometry x="75" y="50" width="115" height="50" as="geometry" />
        </mxCell>
        <mxCell id="q5prHMVFRJjdFCk8cDmZ-4" style="edgeStyle=orthogonalEdgeStyle;rounded=0;orthogonalLoop=1;jettySize=auto;html=1;entryX=0.5;entryY=0;entryDx=0;entryDy=0;" parent="nWeCvu2n60bJMO3mKfKt-1" source="nWeCvu2n60bJMO3mKfKt-13" target="q5prHMVFRJjdFCk8cDmZ-3" edge="1">
          <mxGeometry relative="1" as="geometry" />
        </mxCell>
        <mxCell id="nWeCvu2n60bJMO3mKfKt-13" value="Halaman Katalog Produk" style="rounded=0;whiteSpace=wrap;html=1;" parent="nWeCvu2n60bJMO3mKfKt-1" vertex="1">
          <mxGeometry x="70" y="280" width="120" height="40" as="geometry" />
        </mxCell>
        <mxCell id="nWeCvu2n60bJMO3mKfKt-5" value="Login" style="rounded=0;whiteSpace=wrap;html=1;" parent="nWeCvu2n60bJMO3mKfKt-1" vertex="1">
          <mxGeometry x="70" y="175" width="125" height="40" as="geometry" />
        </mxCell>
        <mxCell id="nWeCvu2n60bJMO3mKfKt-6" style="edgeStyle=orthogonalEdgeStyle;rounded=0;orthogonalLoop=1;jettySize=auto;html=1;" parent="nWeCvu2n60bJMO3mKfKt-1" source="nWeCvu2n60bJMO3mKfKt-4" target="nWeCvu2n60bJMO3mKfKt-5" edge="1">
          <mxGeometry relative="1" as="geometry" />
        </mxCell>
        <mxCell id="nWeCvu2n60bJMO3mKfKt-164" value="End" style="ellipse;whiteSpace=wrap;html=1;" parent="nWeCvu2n60bJMO3mKfKt-1" vertex="1">
          <mxGeometry x="72.5" y="650" width="115" height="50" as="geometry" />
        </mxCell>
        <mxCell id="q5prHMVFRJjdFCk8cDmZ-21" style="edgeStyle=orthogonalEdgeStyle;rounded=0;orthogonalLoop=1;jettySize=auto;html=1;entryX=0.5;entryY=0;entryDx=0;entryDy=0;" parent="nWeCvu2n60bJMO3mKfKt-1" source="q5prHMVFRJjdFCk8cDmZ-3" target="nWeCvu2n60bJMO3mKfKt-164" edge="1">
          <mxGeometry relative="1" as="geometry" />
        </mxCell>
        <mxCell id="q5prHMVFRJjdFCk8cDmZ-3" value="" style="rhombus;whiteSpace=wrap;html=1;" parent="nWeCvu2n60bJMO3mKfKt-1" vertex="1">
          <mxGeometry x="110" y="345" width="40" height="40" as="geometry" />
        </mxCell>
        <mxCell id="nWeCvu2n60bJMO3mKfKt-3" value="Sistem" style="swimlane;whiteSpace=wrap;html=1;" parent="1" vertex="1">
          <mxGeometry x="520" y="520" width="280" height="710" as="geometry" />
        </mxCell>
        <mxCell id="nWeCvu2n60bJMO3mKfKt-7" value="Validasi&amp;nbsp;&lt;div&gt;No Hp dan password&lt;/div&gt;" style="rhombus;whiteSpace=wrap;html=1;" parent="nWeCvu2n60bJMO3mKfKt-3" vertex="1">
          <mxGeometry x="150" y="130" width="90" height="130" as="geometry" />
        </mxCell>
        <mxCell id="q5prHMVFRJjdFCk8cDmZ-12" value="katalog dengan pesan &quot;produk tidak tersedia&quot;" style="rounded=0;whiteSpace=wrap;html=1;" parent="nWeCvu2n60bJMO3mKfKt-3" vertex="1">
          <mxGeometry x="59.5" y="640" width="130" height="40" as="geometry" />
        </mxCell>
        <mxCell id="q5prHMVFRJjdFCk8cDmZ-1" value="melakukan pencarian produk berdasarkan nama atau filter" style="rounded=0;whiteSpace=wrap;html=1;" parent="nWeCvu2n60bJMO3mKfKt-3" vertex="1">
          <mxGeometry x="-166.5" y="532.5" width="123" height="50" as="geometry" />
        </mxCell>
        <mxCell id="KQT2WfDAjyBMR8aRE7Ld-2" style="edgeStyle=orthogonalEdgeStyle;rounded=0;orthogonalLoop=1;jettySize=auto;html=1;entryX=0.5;entryY=0;entryDx=0;entryDy=0;" edge="1" parent="nWeCvu2n60bJMO3mKfKt-3" source="q5prHMVFRJjdFCk8cDmZ-7" target="q5prHMVFRJjdFCk8cDmZ-12">
          <mxGeometry relative="1" as="geometry" />
        </mxCell>
        <mxCell id="KQT2WfDAjyBMR8aRE7Ld-3" value="Tidak" style="edgeLabel;html=1;align=center;verticalAlign=middle;resizable=0;points=[];" vertex="1" connectable="0" parent="KQT2WfDAjyBMR8aRE7Ld-2">
          <mxGeometry x="-0.4479" y="-1" relative="1" as="geometry">
            <mxPoint as="offset" />
          </mxGeometry>
        </mxCell>
        <mxCell id="q5prHMVFRJjdFCk8cDmZ-7" value="&lt;font style=&quot;font-size: 10px;&quot;&gt;Validasi :&amp;nbsp;&lt;/font&gt;&lt;div&gt;&lt;span style=&quot;font-size: 10px;&quot;&gt;produk yang di cari&amp;nbsp;&lt;/span&gt;&lt;/div&gt;&lt;div&gt;&lt;span style=&quot;font-size: 10px;&quot;&gt;tersedia&amp;nbsp;&lt;/span&gt;&lt;/div&gt;&lt;div&gt;&lt;span style=&quot;font-size: 10px;&quot;&gt;atau tidak&lt;/span&gt;&lt;/div&gt;" style="rhombus;whiteSpace=wrap;html=1;" parent="nWeCvu2n60bJMO3mKfKt-3" vertex="1">
          <mxGeometry x="69.5" y="510" width="110" height="95" as="geometry" />
        </mxCell>
        <mxCell id="q5prHMVFRJjdFCk8cDmZ-8" style="edgeStyle=orthogonalEdgeStyle;rounded=0;orthogonalLoop=1;jettySize=auto;html=1;" parent="nWeCvu2n60bJMO3mKfKt-3" source="q5prHMVFRJjdFCk8cDmZ-1" target="q5prHMVFRJjdFCk8cDmZ-7" edge="1">
          <mxGeometry relative="1" as="geometry" />
        </mxCell>
        <mxCell id="q5prHMVFRJjdFCk8cDmZ-15" style="edgeStyle=orthogonalEdgeStyle;rounded=0;orthogonalLoop=1;jettySize=auto;html=1;" parent="nWeCvu2n60bJMO3mKfKt-3" source="q5prHMVFRJjdFCk8cDmZ-12" target="q5prHMVFRJjdFCk8cDmZ-1" edge="1">
          <mxGeometry relative="1" as="geometry" />
        </mxCell>
        <mxCell id="q5prHMVFRJjdFCk8cDmZ-26" style="edgeStyle=orthogonalEdgeStyle;rounded=0;orthogonalLoop=1;jettySize=auto;html=1;entryX=0;entryY=0.5;entryDx=0;entryDy=0;" parent="nWeCvu2n60bJMO3mKfKt-3" source="q5prHMVFRJjdFCk8cDmZ-16" target="q5prHMVFRJjdFCk8cDmZ-25" edge="1">
          <mxGeometry relative="1" as="geometry" />
        </mxCell>
        <mxCell id="q5prHMVFRJjdFCk8cDmZ-16" value="Menambahkan produk ke dalam keranjang belanja" style="rounded=0;whiteSpace=wrap;html=1;" parent="nWeCvu2n60bJMO3mKfKt-3" vertex="1">
          <mxGeometry x="-170" y="340" width="123" height="50" as="geometry" />
        </mxCell>
        <mxCell id="q5prHMVFRJjdFCk8cDmZ-31" style="edgeStyle=orthogonalEdgeStyle;rounded=0;orthogonalLoop=1;jettySize=auto;html=1;entryX=0.5;entryY=0;entryDx=0;entryDy=0;" parent="nWeCvu2n60bJMO3mKfKt-3" source="q5prHMVFRJjdFCk8cDmZ-25" target="q5prHMVFRJjdFCk8cDmZ-27" edge="1">
          <mxGeometry relative="1" as="geometry">
            <Array as="points">
              <mxPoint x="168" y="365" />
              <mxPoint x="168" y="393" />
            </Array>
          </mxGeometry>
        </mxCell>
        <mxCell id="q5prHMVFRJjdFCk8cDmZ-35" value="Ya" style="edgeLabel;html=1;align=center;verticalAlign=middle;resizable=0;points=[];" parent="q5prHMVFRJjdFCk8cDmZ-31" vertex="1" connectable="0">
          <mxGeometry x="-0.5523" y="-3" relative="1" as="geometry">
            <mxPoint as="offset" />
          </mxGeometry>
        </mxCell>
        <mxCell id="q5prHMVFRJjdFCk8cDmZ-32" style="edgeStyle=orthogonalEdgeStyle;rounded=0;orthogonalLoop=1;jettySize=auto;html=1;entryX=0;entryY=0.5;entryDx=0;entryDy=0;" parent="nWeCvu2n60bJMO3mKfKt-3" source="q5prHMVFRJjdFCk8cDmZ-25" target="q5prHMVFRJjdFCk8cDmZ-29" edge="1">
          <mxGeometry relative="1" as="geometry" />
        </mxCell>
        <mxCell id="q5prHMVFRJjdFCk8cDmZ-36" value="Tidak" style="edgeLabel;html=1;align=center;verticalAlign=middle;resizable=0;points=[];" parent="q5prHMVFRJjdFCk8cDmZ-32" vertex="1" connectable="0">
          <mxGeometry x="-0.2308" y="-3" relative="1" as="geometry">
            <mxPoint as="offset" />
          </mxGeometry>
        </mxCell>
        <mxCell id="q5prHMVFRJjdFCk8cDmZ-25" value="&lt;font style=&quot;font-size: 10px;&quot;&gt;Validasi :&amp;nbsp;&lt;/font&gt;&lt;div&gt;&lt;span style=&quot;font-size: 10px;&quot;&gt;stok produk tersedia atau tidak&lt;/span&gt;&lt;/div&gt;" style="rhombus;whiteSpace=wrap;html=1;" parent="nWeCvu2n60bJMO3mKfKt-3" vertex="1">
          <mxGeometry x="20" y="317.5" width="110" height="95" as="geometry" />
        </mxCell>
        <mxCell id="q5prHMVFRJjdFCk8cDmZ-27" value="&lt;font style=&quot;font-size: 11px;&quot;&gt;Menampilkan pesan berhasil&lt;/font&gt;" style="rounded=0;whiteSpace=wrap;html=1;" parent="nWeCvu2n60bJMO3mKfKt-3" vertex="1">
          <mxGeometry x="115" y="412.5" width="105" height="27.5" as="geometry" />
        </mxCell>
        <mxCell id="q5prHMVFRJjdFCk8cDmZ-29" value="&lt;font style=&quot;font-size: 11px;&quot;&gt;Menampilkan pesan stok kosong&lt;/font&gt;" style="rounded=0;whiteSpace=wrap;html=1;" parent="nWeCvu2n60bJMO3mKfKt-3" vertex="1">
          <mxGeometry x="115" y="460" width="105" height="30" as="geometry" />
        </mxCell>
        <mxCell id="nWeCvu2n60bJMO3mKfKt-14" style="edgeStyle=orthogonalEdgeStyle;rounded=0;orthogonalLoop=1;jettySize=auto;html=1;entryX=0.5;entryY=0;entryDx=0;entryDy=0;" parent="1" source="nWeCvu2n60bJMO3mKfKt-7" target="nWeCvu2n60bJMO3mKfKt-13" edge="1">
          <mxGeometry relative="1" as="geometry">
            <Array as="points">
              <mxPoint x="253" y="770" />
            </Array>
          </mxGeometry>
        </mxCell>
        <mxCell id="nWeCvu2n60bJMO3mKfKt-15" value="Ya" style="edgeLabel;html=1;align=center;verticalAlign=middle;resizable=0;points=[];" parent="nWeCvu2n60bJMO3mKfKt-14" vertex="1" connectable="0">
          <mxGeometry x="-0.3207" y="2" relative="1" as="geometry">
            <mxPoint y="-2" as="offset" />
          </mxGeometry>
        </mxCell>
        <mxCell id="nWeCvu2n60bJMO3mKfKt-8" style="edgeStyle=orthogonalEdgeStyle;rounded=0;orthogonalLoop=1;jettySize=auto;html=1;entryX=0;entryY=0.5;entryDx=0;entryDy=0;" parent="1" source="nWeCvu2n60bJMO3mKfKt-5" target="nWeCvu2n60bJMO3mKfKt-7" edge="1">
          <mxGeometry relative="1" as="geometry" />
        </mxCell>
        <mxCell id="nWeCvu2n60bJMO3mKfKt-9" style="edgeStyle=orthogonalEdgeStyle;rounded=0;orthogonalLoop=1;jettySize=auto;html=1;entryX=1;entryY=0.25;entryDx=0;entryDy=0;exitX=0.5;exitY=0;exitDx=0;exitDy=0;" parent="1" source="nWeCvu2n60bJMO3mKfKt-7" target="nWeCvu2n60bJMO3mKfKt-5" edge="1">
          <mxGeometry relative="1" as="geometry">
            <Array as="points">
              <mxPoint x="715" y="640" />
              <mxPoint x="560" y="640" />
              <mxPoint x="560" y="705" />
            </Array>
          </mxGeometry>
        </mxCell>
        <mxCell id="nWeCvu2n60bJMO3mKfKt-10" value="Tidak" style="edgeLabel;html=1;align=center;verticalAlign=middle;resizable=0;points=[];" parent="nWeCvu2n60bJMO3mKfKt-9" vertex="1" connectable="0">
          <mxGeometry x="-0.6208" y="4" relative="1" as="geometry">
            <mxPoint y="-4" as="offset" />
          </mxGeometry>
        </mxCell>
        <mxCell id="q5prHMVFRJjdFCk8cDmZ-9" style="edgeStyle=orthogonalEdgeStyle;rounded=0;orthogonalLoop=1;jettySize=auto;html=1;entryX=1;entryY=0.5;entryDx=0;entryDy=0;" parent="1" source="q5prHMVFRJjdFCk8cDmZ-7" target="nWeCvu2n60bJMO3mKfKt-13" edge="1">
          <mxGeometry relative="1" as="geometry">
            <Array as="points">
              <mxPoint x="790" y="1077" />
              <mxPoint x="790" y="820" />
            </Array>
          </mxGeometry>
        </mxCell>
        <mxCell id="q5prHMVFRJjdFCk8cDmZ-10" value="Ya" style="edgeLabel;html=1;align=center;verticalAlign=middle;resizable=0;points=[];" parent="q5prHMVFRJjdFCk8cDmZ-9" vertex="1" connectable="0">
          <mxGeometry x="-0.7446" y="-2" relative="1" as="geometry">
            <mxPoint x="-32" y="14" as="offset" />
          </mxGeometry>
        </mxCell>
        <mxCell id="q5prHMVFRJjdFCk8cDmZ-5" style="edgeStyle=orthogonalEdgeStyle;rounded=0;orthogonalLoop=1;jettySize=auto;html=1;entryX=0;entryY=0.5;entryDx=0;entryDy=0;" parent="1" source="q5prHMVFRJjdFCk8cDmZ-3" target="q5prHMVFRJjdFCk8cDmZ-1" edge="1">
          <mxGeometry relative="1" as="geometry" />
        </mxCell>
        <mxCell id="q5prHMVFRJjdFCk8cDmZ-18" style="edgeStyle=orthogonalEdgeStyle;rounded=0;orthogonalLoop=1;jettySize=auto;html=1;entryX=0;entryY=0.5;entryDx=0;entryDy=0;" parent="1" source="q5prHMVFRJjdFCk8cDmZ-3" target="q5prHMVFRJjdFCk8cDmZ-16" edge="1">
          <mxGeometry relative="1" as="geometry">
            <Array as="points">
              <mxPoint x="350" y="885" />
            </Array>
          </mxGeometry>
        </mxCell>
        <mxCell id="q5prHMVFRJjdFCk8cDmZ-33" style="edgeStyle=orthogonalEdgeStyle;rounded=0;orthogonalLoop=1;jettySize=auto;html=1;entryX=1;entryY=0.5;entryDx=0;entryDy=0;" parent="1" source="q5prHMVFRJjdFCk8cDmZ-27" target="nWeCvu2n60bJMO3mKfKt-13" edge="1">
          <mxGeometry relative="1" as="geometry">
            <Array as="points">
              <mxPoint x="760" y="946" />
              <mxPoint x="760" y="820" />
            </Array>
          </mxGeometry>
        </mxCell>
        <mxCell id="q5prHMVFRJjdFCk8cDmZ-34" style="edgeStyle=orthogonalEdgeStyle;rounded=0;orthogonalLoop=1;jettySize=auto;html=1;entryX=1;entryY=0.5;entryDx=0;entryDy=0;" parent="1" source="q5prHMVFRJjdFCk8cDmZ-29" target="nWeCvu2n60bJMO3mKfKt-13" edge="1">
          <mxGeometry relative="1" as="geometry">
            <Array as="points">
              <mxPoint x="760" y="995" />
              <mxPoint x="760" y="820" />
            </Array>
          </mxGeometry>
        </mxCell>
      </root>
    </mxGraphModel>
  </diagram>
</mxfile>
